# xmcd
#
# Track frame offsets: 
#        150
#        18131
#        38956
#        56837
#        72112
#        87051
#        105804
#        120960
#        142246
#        160745
#        183034
#        199931
#        217611
#        233621
#        248196
#        262276
#        275776
#        293238
#        307758
#        326972
#        344001
#
# Disc length: 4765 seconds
#
# Revision: 0
# Processed by: cddbd v1.5.2PL0 Copyright (c) Steve Scherf et al.
# Submitted via: ExactAudioCopy v1.1
#
DISCID=2e129b15
DTITLE=Various Artist - Akella Presents - vol.103 - Country-Blues  CD
DTITLE=2
DYEAR=2017
DGENRE=Country
TTITLE0=Paul Thorn - Lucky Seven Ranch
TTITLE1=Delbert McClinton - When Rita Leaves
TTITLE2=John Mayall and The Bluesbreakers - All Those Heroes
TTITLE3=Willie Nelson - A Woman's Love
TTITLE4=Cadillac Johnson - Point Of View
TTITLE5=Thorbjorn Risager and The Black Tornado - Hard Time
TTITLE6=Mavis Staples - Will The Circle Be Unbroken
TTITLE7=Corey Stevens - The Dreaming Man
TTITLE8=Jim Mesi Band - Apache
TTITLE9=Dave Hunt - Blues Highway
TTITLE10=Ron Evans Group - Suspicious
TTITLE11=Rita Chiarelli - Never Been Loved Before
TTITLE12=Jim Gustin and Truth Jones - Live with Yourself
TTITLE13=Jimmy Vivino - God Don't Never Change
TTITLE14=John Campbelljohn - The Mumble Boogie
TTITLE15=Blues 'n' Trouble - Poor Boy
TTITLE16=Ruthie Foster - Richland Woman Blues
TTITLE17=Rick Robichaud - Time Flies By
TTITLE18=Dion - You Better Watch Yourself
TTITLE19=Jimmy Nalls - Devil at My Door
TTITLE20=Topper Price and The Upsetters - Someday I'm Gonna Take You Hom
TTITLE20=e
EXTD=
EXTT0=
EXTT1=
EXTT2=
EXTT3=
EXTT4=
EXTT5=
EXTT6=
EXTT7=
EXTT8=
EXTT9=
EXTT10=
EXTT11=
EXTT12=
EXTT13=
EXTT14=
EXTT15=
EXTT16=
EXTT17=
EXTT18=
EXTT19=
EXTT20=
PLAYORDER=
